PathFileType	4	(X/Y/Z)	joints.trc
DataRate	CameraRate	NumFrames	NumMarkers	Units	OrigDataRate	OrigDataStartFrame	OrigNumFrames
30.0	30.0	8	17	m	30.0	31	120
Frame#	Time	smpl_pelvis			l_smpl_hip			r_smpl_hip			smpl_spine			l_smpl_knee			r_smpl_knee			l_smpl_ankle			r_smpl_ankle			l_smpl_mtp			r_smpl_mtp			smpl_head			l_smpl_shoulder			r_smpl_shoulder			l_smpl_elbow			r_smpl_elbow			l_smpl_hand			r_smpl_hand		
		X1	Y1	Z1	X2	Y2	Z2	X3	Y3	Z3	X4	Y4	Z4	X5	Y5	Z5	X6	Y6	Z6	X7	Y7	Z7	X8	Y8	Z8	X9	Y9	Z9	X10	Y10	Z10	X11	Y11	Z11	X12	Y12	Z12	X13	Y13	Z13	X14	Y14	Z14	X15	Y15	Z15	X16	Y16	Z16	X17	Y17	Z17
31	1.000000	0.012686	0.819647	-0.002675	0.071087	0.734546	0.004708	-0.053515	0.731761	-0.017166	0.025902	0.946699	-0.034670	0.129476	0.382736	0.175078	-0.143015	0.385093	0.140889	0.210705	0.050546	-0.103786	-0.161651	0.060231	-0.137702	0.266913	0.013104	0.024976	-0.227262	0.013144	-0.011629	-0.027932	1.434854	0.089464	0.199603	1.248009	0.051715	-0.197922	1.246428	-0.012975	0.269506	0.997861	0.011287	-0.234996	0.987484	-0.084897	0.359851	0.766333	0.115415	-0.350974	0.797271	0.050991
32	1.033333	0.017430	0.840367	-0.010397	0.075901	0.754844	-0.006740	-0.048179	0.752787	-0.029181	0.030437	0.968917	-0.036973	0.131314	0.397958	0.150500	-0.134430	0.401028	0.112818	0.208944	0.050697	-0.105217	-0.156523	0.058542	-0.141740	0.262900	0.013260	0.024805	-0.221940	0.013778	-0.014273	-0.027195	1.455176	0.100782	0.202745	1.266451	0.066229	-0.195024	1.264289	-0.005035	0.254597	1.018018	0.011890	-0.207678	1.010957	-0.091239	0.323582	0.763583	0.058807	-0.308805	0.752053	-0.060503
33	1.066667	0.022077	0.874249	-0.013190	0.080924	0.788752	-0.014009	-0.042666	0.787332	-0.037220	0.033933	1.004409	-0.032780	0.136408	0.421158	0.111831	-0.127219	0.426505	0.073557	0.206512	0.051774	-0.107789	-0.151611	0.058850	-0.144303	0.255213	0.014674	0.024557	-0.215234	0.015870	-0.014596	-0.026533	1.488740	0.116493	0.205431	1.303303	0.076850	-0.192402	1.299931	0.002020	0.248607	1.062075	-0.004181	-0.189169	1.057224	-0.111238	0.311661	0.802503	-0.006519	-0.254981	0.792348	-0.167114
34	1.100000	0.026467	0.905506	-0.014038	0.085774	0.820538	-0.018970	-0.037635	0.819540	-0.043068	0.037188	1.036960	-0.027147	0.143635	0.442415	0.070814	-0.121528	0.449408	0.029739	0.202703	0.050985	-0.107858	-0.146235	0.058893	-0.145247	0.248157	0.015815	0.026569	-0.209220	0.017562	-0.014375	-0.024673	1.518170	0.132297	0.207848	1.338424	0.083506	-0.188275	1.334670	0.006438	0.249808	1.110686	-0.022566	-0.177478	1.109028	-0.136451	0.314149	0.853992	-0.066922	-0.224054	0.856855	-0.242272
35	1.133333	0.030331	0.927823	-0.015406	0.090100	0.843717	-0.024007	-0.033080	0.842798	-0.048910	0.039919	1.060172	-0.022736	0.150850	0.458703	0.031936	-0.114358	0.466111	-0.011187	0.200544	0.050235	-0.107841	-0.141115	0.060314	-0.147155	0.244548	0.016896	0.026977	-0.204428	0.019565	-0.016588	-0.022909	1.538747	0.144574	0.209672	1.364354	0.087943	-0.183915	1.360376	0.008964	0.255219	1.152045	-0.038646	-0.169548	1.153664	-0.157809	0.325487	0.904464	-0.116402	-0.205519	0.918599	-0.293447
36	1.166667	0.033231	0.939800	-0.018127	0.093482	0.856595	-0.029693	-0.029329	0.855490	-0.055297	0.041728	1.072576	-0.020677	0.155493	0.469696	0.004710	-0.106147	0.476119	-0.037219	0.201256	0.051328	-0.108025	-0.135704	0.063156	-0.149674	0.243711	0.018801	0.025963	-0.199191	0.022253	-0.020425	-0.022003	1.548781	0.155692	0.210803	1.378720	0.092560	-0.180669	1.375069	0.012074	0.262278	1.181166	-0.051203	-0.164580	1.186039	-0.172796	0.342238	0.948102	-0.154937	-0.194249	0.972623	-0.326497
37	1.200000	0.034777	0.941245	-0.022478	0.095219	0.858675	-0.035580	-0.027296	0.857390	-0.061444	0.042878	1.074037	-0.022591	0.155930	0.473301	0.004957	-0.101085	0.479197	-0.037511	0.203528	0.054725	-0.107276	-0.128409	0.065828	-0.151130	0.245010	0.021164	0.025977	-0.191953	0.024124	-0.022358	-0.021625	1.547535	0.166639	0.211046	1.380440	0.096961	-0.179108	1.377563	0.017382	0.267544	1.193485	-0.059183	-0.162487	1.201369	-0.180629	0.357713	0.972719	-0.180177	-0.189752	1.004686	-0.346298
38	1.233333	0.034977	0.932611	-0.028937	0.095341	0.850258	-0.042243	-0.027281	0.848978	-0.067597	0.043314	1.065450	-0.029059	0.153599	0.468497	0.024908	-0.100804	0.475612	-0.019391	0.206561	0.058144	-0.108192	-0.122619	0.068764	-0.154548	0.248284	0.022032	0.023874	-0.185665	0.024212	-0.024914	-0.020981	1.535196	0.174747	0.210966	1.369368	0.098811	-0.179343	1.367732	0.023060	0.269351	1.187180	-0.064215	-0.163366	1.197749	-0.182421	0.366412	0.969301	-0.193538	-0.191652	1.006696	-0.356608
